<?xml version="1.0" encoding="UTF-8" standalone="no"?>
<svg
   xmlns:dc="http://purl.org/dc/elements/1.1/"
   xmlns:cc="http://creativecommons.org/ns#"
   xmlns:rdf="http://www.w3.org/1999/02/22-rdf-syntax-ns#"
   xmlns:svg="http://www.w3.org/2000/svg"
   xmlns="http://www.w3.org/2000/svg"
   xmlns:xlink="http://www.w3.org/1999/xlink"
   xmlns:sodipodi="http://sodipodi.sourceforge.net/DTD/sodipodi-0.dtd"
   xmlns:inkscape="http://www.inkscape.org/namespaces/inkscape"
   sodipodi:docname="menu.svg"
   inkscape:version="1.0 (4035a4f, 2020-05-01)"
   width="22.5"
   viewBox="0 0 22.5 17.5"
   version="1.1"
   id="svg64"
   height="17.5">
  <metadata
     id="metadata68">
    <rdf:RDF>
      <cc:Work
         rdf:about="">
        <dc:format>image/svg+xml</dc:format>
        <dc:type
           rdf:resource="http://purl.org/dc/dcmitype/StillImage" />
      </cc:Work>
    </rdf:RDF>
  </metadata>
  <sodipodi:namedview
     inkscape:document-rotation="0"
     inkscape:zoom="41.771429"
     inkscape:window-y="27"
     inkscape:window-x="0"
     inkscape:window-width="1920"
     inkscape:window-maximized="1"
     inkscape:window-height="1027"
     inkscape:pageshadow="2"
     inkscape:pageopacity="0"
     inkscape:cy="8.75"
     inkscape:cx="11.29788"
     inkscape:current-layer="_22_Icons_Filled_Star"
     showgrid="false"
     pagecolor="#ffffff"
     objecttolerance="10"
     id="namedview66"
     guidetolerance="10"
     gridtolerance="10"
     borderopacity="1"
     bordercolor="#666666" />
  <defs
     id="defs60">
    <linearGradient
       id="linearGradient2808"
       inkscape:collect="always">
      <stop
         id="stop2804"
         offset="0"
         style="stop-color:#00efd1;stop-opacity:1" />
      <stop
         id="stop2806"
         offset="1"
         style="stop-color:#00acea;stop-opacity:1" />
    </linearGradient>
    <clipPath
       id="clip-path">
      <path
         transform="translate(0.75 0.25)"
         id="_Icon_Color"
         fill="#0d8e53"
         data-name="🎨 Icon Color"
         d="M1.25,17.5a1.25,1.25,0,1,1,0-2.5h20a1.25,1.25,0,1,1,0,2.5Zm0-7.5a1.25,1.25,0,1,1,0-2.5h20a1.25,1.25,0,0,1,0,2.5Zm0-7.5a1.25,1.25,0,0,1,0-2.5h20a1.25,1.25,0,0,1,0,2.5Z" />
    </clipPath>
    <linearGradient
       gradientUnits="userSpaceOnUse"
       y2="9"
       x2="23.251209"
       y1="9"
       x1="0.74519428"
       id="linearGradient2810"
       xlink:href="#linearGradient2808"
       inkscape:collect="always" />
  </defs>
  <g
     transform="translate(-0.75 -0.25)"
     id="_22_Icons_Filled_Star"
     data-name="22) Icons/Filled/Star">
    <path
       id="_Icon_Color-2"
       fill="#0d8e53"
       data-name="🎨 Icon Color"
       d="m 1.8400131,17.75 a 1.2610115,1.2609999 0 0 1 0,-2.500001 H 19.281173 a 1.2610115,1.2609999 0 0 1 0,2.500001 z M 1.5910108,10.249999 c -0.4650042,0 -0.84100767,-0.5599995 -0.84100767,-1.2499994 0,-0.69 0.37600347,-1.2499999 0.84100767,-1.2499999 H 15.036134 c 0.464004,0 0.841008,0.5599999 0.841008,1.2499999 0,0.6899999 -0.377004,1.2499994 -0.841008,1.2499994 z M 2.0010146,2.7499998 a 1.2500114,1.2499999 0 0 1 0,-2.4999998 H 22.001198 a 1.2500114,1.2499999 0 0 1 0,2.4999998 z"
       style="fill:url(#linearGradient2810);stroke-width:1.00001;fill-opacity:1" />
  </g>
</svg>
