<?xml version="1.0" encoding="UTF-8" standalone="no"?>
<svg
   xmlns:dc="http://purl.org/dc/elements/1.1/"
   xmlns:cc="http://creativecommons.org/ns#"
   xmlns:rdf="http://www.w3.org/1999/02/22-rdf-syntax-ns#"
   xmlns:svg="http://www.w3.org/2000/svg"
   xmlns="http://www.w3.org/2000/svg"
   xmlns:xlink="http://www.w3.org/1999/xlink"
   xmlns:sodipodi="http://sodipodi.sourceforge.net/DTD/sodipodi-0.dtd"
   xmlns:inkscape="http://www.inkscape.org/namespaces/inkscape"
   inkscape:version="1.0 (4035a4f, 2020-05-01)"
   sodipodi:docname="scart.svg"
   id="svg919"
   version="1.1"
   height="512"
   width="512"
   viewBox="0 0 512 512">
  <metadata
     id="metadata925">
    <rdf:RDF>
      <cc:Work
         rdf:about="">
        <dc:format>image/svg+xml</dc:format>
        <dc:type
           rdf:resource="http://purl.org/dc/dcmitype/StillImage" />
        <dc:title></dc:title>
      </cc:Work>
    </rdf:RDF>
  </metadata>
  <defs
     id="defs923" />
  <sodipodi:namedview
     inkscape:current-layer="svg919"
     inkscape:window-maximized="1"
     inkscape:window-y="27"
     inkscape:window-x="0"
     inkscape:cy="312.03283"
     inkscape:cx="257.40082"
     inkscape:zoom="1.4277344"
     showgrid="false"
     id="namedview921"
     inkscape:window-height="1027"
     inkscape:window-width="1920"
     inkscape:pageshadow="2"
     inkscape:pageopacity="0"
     guidetolerance="10"
     gridtolerance="10"
     objecttolerance="10"
     borderopacity="1"
     bordercolor="#666666"
     pagecolor="#ffffff" />
  <linearGradient
     y2="438.078"
     y1="30"
     x2="174.667"
     x1="174.667"
     gradientUnits="userSpaceOnUse"
     id="a">
    <stop
       id="stop906"
       stop-color="#00efd1"
       offset="0" />
    <stop
       id="stop908"
       stop-color="#00acea"
       offset="1" />
  </linearGradient>
  <linearGradient
     y2="438.078"
     y1="30"
     xlink:href="#a"
     x2="372.786"
     x1="372.786"
     id="b" />
  <linearGradient
     gradientUnits="userSpaceOnUse"
     y2="195.0002"
     y1="195.0002"
     xlink:href="#a"
     x2="480.28083"
     x1="31.719"
     id="c" />
  <path
     id="path913"
     fill="url(#a)"
     d="m174.667 380.772a46.5 46.5 0 1 0 46.5 46.5 46.549 46.549 0 0 0 -46.5-46.5zm0 72.992a26.5 26.5 0 1 1 26.5-26.5 26.526 26.526 0 0 1 -26.5 26.5z" />
  <path
     id="path915"
     fill="url(#b)"
     d="m372.786 380.772a46.5 46.5 0 1 0 46.5 46.5 46.549 46.549 0 0 0 -46.5-46.5zm0 72.992a26.5 26.5 0 1 1 26.5-26.5 26.526 26.526 0 0 1 -26.5 26.5z" />
  <path
     id="path917"
     fill="url(#c)"
     d="m470.433 103.407-340.081-5.136-9.329-28.271a46.542 46.542 0 0 0 -44.164-32h-35.14a10 10 0 1 0 0 20h35.14a26.578 26.578 0 0 1 25.179 18.289l11.781 35.611 54.359 164.28-4.9 11.865a46.293 46.293 0 0 0 42.984 63.955h203.019a10 10 0 0 0 0-20h-203.019a26.312 26.312 0 0 1 -24.49-36.384l3.844-9.272 219.733-22.5a57 57 0 0 0 49.58-43.376l25.078-104.738a10 10 0 0 0 -9.574-12.323zm-34.955 112.415a36.988 36.988 0 0 1 -32.169 28.144l-217.365 22.274-48.936-147.866 320.641 4.843z" />
</svg>
